<?xml version="1.0" encoding="UTF-8"?>
<svg id="uuid-d7718d65-ae67-413c-a347-528b4f3384ae" data-name="Layer_2" xmlns="http://www.w3.org/2000/svg" viewBox="0 0 193.21 200">
  <g id="uuid-ce5bc2c3-94bf-46fe-b770-b973dc61709c" data-name="Layer_1">
    <path d="M3.37,6.51c.31,2.23,2.68,3.59,2.94,3.71l.14.07.13.05c.83.23,1.66.11,2.43-.34,1.22-.77,2.02-2.34,2.25-3.49.26-1.32-.57-2.65-2.15-3.51-1.7-.92-3.47-.83-4.47.21-1.26,1.26-1.39,2.51-1.26,3.31ZM13.34,28.97l.58.09c.73.12,1.31-.28,1.69-.63,2.14-1.85,9.08-12.74,9.08-14.74,0-2.08-2.09-4.71-5.25-5.28-2.9-.53-7.91.73-9.34,5.12-1.35,4.04-.67,6.96.25,9.51.97,2.68,2.59,5.3,2.68,5.41l.32.51ZM42.22,88.19c-.18.79-.4,1.75-.67,2.87-1.12,4.69-2.81,11.78-2.81,17.05.02,6.11,2.96,18.67,6.85,22.89,3.55,3.82,12.22,11.15,19.59,14.76,11.61,5.72,20.35,8.48,36.19,13.49l7.76,2.45c16.33,5.18,21.94,8.45,26.05,10.84,1.28.75,2.44,1.42,3.72,2.04,2.21,1.05,4.37,2.32,6.69,3.59,3.14,1.8,6.7,3.82,11.14,5.87l.18.07c10.57,4.85,16.68,7.45,18.59,4.57,2.06-3.15-1.45-11.91-3.68-15.71-1.06-1.77-2.55-3.33-4.29-5.19-3.09-3.29-6.57-7-9.04-13.29-1.72-4.35-3.1-10.5-4.57-17.01-1.86-8.26-4-17.63-7.26-25.53-5.87-14.23-9.43-21.79-16.11-31.54-2.22-3.28-4.18-5.86-5.9-8.13-3.33-4.42-5.52-7.34-6.4-10.83-.37-1.53-.81-2.96-1.19-4.22-.47-1.55-1.02-3.39-1.06-4.23.55.54,1.31,2.14,1.83,3.28.63,1.32,1.34,2.84,2.19,4.15,2.25,3.4,6.38,9.25,13.26,17.64,5.97,7.24,7.04,9.73,9.94,16.37l.98,2.22c3.64,8.24,4.99,12.25,8.04,22.74,1.39,4.74,2.39,8.55,3.32,12.24,1.04,4.14,2.01,8.01,3.42,12.34,2.51,7.81,5.53,14.24,6.58,16.11,1.13,1.97,5.72,5.63,9.58,3.83.74-.35,1.69-.74,2.71-1.16,4.09-1.68,7.07-3,8.22-4.66,2.61-3.81.05-6.77-.79-7.73-.5-.61-1.41-1.24-2.65-2.11-3.21-2.3-8.56-6.14-11.01-12.25-.82-2.06-1.54-3.6-2.2-4.98-2.02-4.36-2.94-6.34-2.79-15.48.11-5.53.35-9.78.56-13.53.25-4.61.49-8.6.35-13.44-.25-9.29-3.43-17.73-6.14-24.08-3.17-7.36-7.58-12.67-13.48-16.27-5.5-3.34-9.91-4.46-15.15-3.92-1.87.22-3.86.68-5.76,1.15-2.54.6-5.19,1.23-6.85.99-2.62-.39-5.1-2.44-7.4-6.14-.4-.66-.78-1.43-1.2-2.2-1.81-3.47-4.07-7.78-10.16-7.56-5.81.2-11.59,2.05-17.69,5.57-5.07,2.93-9.17,5.51-12.9,8.56-1.16.95-2.33,2.12-3.48,3.23-1.26,1.26-3.09,3.03-3.99,3.46-.16-.93,1.52-3.13,5.07-6.56,1.35-1.27,2.47-2.43,3.42-3.43,2.42-2.53,4.19-4.37,7.67-6.45l3.71-2.17c7.46-4.35,8.69-5.11,8.19-6.66-.47-1.42-1.96-1.16-4.66-.74-1.74.29-3.92.64-5.53.54-2.69-.19-6.1-1.85-10.38-5.11-3.65-2.76-7.32-5.24-11.6-4.69-3.93.49-7.7,1.67-14.31,11.08-4.99,7.14-9.02,13.74-11.18,17.32l-1.31,2.14c-.48.77-1.63,2.6-2.4,3.33.17-1.44,1.99-4.98,3.04-6.98.5-.92.99-1.88,1.43-2.74.63-1.24,1.19-2.53,1.76-3.79,1.34-2.92,2.7-5.95,4.61-8.67,2.95-4.25,3.57-5.35,3.86-6.2.28-.88.3-1.93.3-2.04.01-2.9-3.08-5.58-5.96-6.65l-.38-.14c-2.57-.95-6.85-2.54-10.75,1.67-4.1,4.42-7.53,9.06-9.43,12.69l-.6,1.11c-2.12,4.09-5.1,9.67-5.32,14.65l-.03.82c-.24,4.7-.34,7.04,1.85,10.48.37.58.75,1.18,1.07,1.73,1.59,2.67,2.99,4.95,5.61,4.95,1.08,0,2.2-.17,3.18-.39-.46,1.18-1.32,2.82-2.82,4.77-1.5,1.92-2.95,3.48-4.25,4.84-1.67,1.8-2.99,3.2-3.76,4.74l-.13.27c-.86,1.75-2.17,4.42-1.15,6.77.56,1.27,1.75,2.18,3.5,2.71l3.34,2.24s3.11,2.04,5.03,4.4c1.96,2.42,2.96,5.52,3.19,9.72.13,3.13-.68,6.62-2.41,10.11-.52,1.04-3.52,8.55-1.77,11.35,1.03,1.67,3.43,2.37,5.18,2.48,2.19.1,4.03-.56,5.07-1.89,2.48-3.12,2.59-10.98,2.58-12.5,0-3.19.67-11.69,2.26-16.93,0-.02,2.26-6.68,3.6-9.37.26-.53.55-1.18.91-1.97.63-1.43,2.13-4.66,3.2-6.17-.28,1.73-1.29,4.78-1.98,6.8-.66,2.03-1.31,3.91-1.62,5.35ZM1.63,2.28C2.44.99,4.98.17,4.98.17l-4.98.02v6.89s.48-2.11.48-2.11c0,0,.36-1.4,1.16-2.68ZM181.19,196.67c-1.14,1.87-3.69,3.28-3.69,3.28h15.71l-.03-43.58s-.69,4.65-3.69,7.25c0,0-1.39,2.21-4.6,2.69-3.25.48-5.23.71-5.43,2.33-.26,1.65.45,7.02,1.85,11.57,1.39,4.56,2.32,5.62,2.08,9.46-.23,3.86-1.02,5.16-2.2,7.01ZM.14,161.93v12.82c37.07,10.83,87.34,10.24,120.61,25.13l25.01-.02C104.91,175.95,40.65,176.08.14,161.93ZM.15,185.12l.04,14.88,108.31-.1c-33.63-10.73-76.21-8.13-108.35-14.78ZM153.83,199.87l19.88-.03s-1.87-2.8-6.03-5.36c-4.16-2.56-12.7-5.84-19.86-9.35-7.18-3.48-15.85-8.15-22.92-11.65-8.66-4.32-23.33-9.2-39.73-13.75-11.64-3.21-22.41-8.63-30.74-13.53-8.32-4.9-13.42-12.13-16.65-13.76-3.22-1.63-6.47-1.41-9.93-1.41s-7.62,2.34-10.4-4.42c-2.77-6.78.9-13.32,2.06-16.12,1.16-2.82,2.54-5.37,2.31-8.42-.23-3.04-.7-4.21-2.54-6.78-1.84-2.57-6.25-5.38-9.71-8.39-3.47-3.05-3.72-5.62-3.94-8.42-.23-2.8,2.52-5.39,4.84-7.96,2.3-2.57,3.01-3.98,3.24-5.38.22-1.39-.01-2.57-1.16-4.9-1.16-2.34-3.24-3.74-4.62-7.24-1.39-3.52-.71-7.24.43-11.69,1.17-4.44,1.39-5.14.24-10.05-1.17-4.91-1.85-3.96-3.47-8.87-1.62-4.9.24-5.85-1.16-8.17C2.57,11.87.02,9.52.02,9.52l.12,141.14c44.53,18.8,116.61,22.01,153.68,49.2ZM15.04,3.9c1.37.11,5.08-.93,8.32,1.97,3.23,2.94,4.15,2.58,6.23,2.68,2.08.13,2.67-1.04,6.81-.8,4.16.21,4.39.57,7.75,2.79,3.34,2.21,5.08,3.62,5.54,3.74.47.13,5.67-3.86,10.76-3.52,5.07.36,6.78.45,12.13,5.25,5.28,4.78,7.94,5.48,11.99,5.61,4.05.1,7.41-1.66,12.84-1.43,5.42.24,9.24,2.32,12.95,6.3,3.68,3.99,5.2,9.12,7.5,11.44,2.32,2.34,4.39,3.41,5.91,3.39,1.49-.01,8.2-2.82,13.4-2.46,5.18.34,9.47.82,14.9,5.36,5.43,4.56,8.9,8.52,12.26,14.13,3.34,5.63,5.21,12.51,6.02,17.89.81,5.35,2.44,19.27,2.33,25.46-.11,6.19-1.14,13.9-.79,18.12.34,4.19,2.2,10.39,4.4,14.02,2.18,3.63,5.08,6.31,7.16,7.58,2.1,1.3,3.7,1.66,5.44,3.27,1.74,1.64,4.28,6.77,4.28,6.77l-.07-61.32c-1.42-3.4-4.13-10.95-6.44-16.6-2.31-5.63-5.27-11.66-8.13-17.35-3.24-6.17-7.6-13.19-11.98-19.13-3.94-5.52-8.48-10.71-12.67-14.59-4.89-4.21-12.58-10.65-18.87-13.89C126.78,4.56,116.39.07,108.8.09L8.22.17s2.44.83,3.37,1.87c.92,1.03,2.07,1.74,3.46,1.86ZM172.5,28.9c11.37,20.57,16.84,36.43,20.53,45.51l-.08-74.41-47.88.06c6.44,3.44,18.42,12.75,27.44,28.84Z" style="fill: #333; fill-rule: evenodd;"/>
  </g>
</svg>