<?xml version="1.0" encoding="UTF-8"?>
<svg id="uuid-5078e1bc-6b93-48f9-a154-1208a74ec7aa" data-name="Layer_2" xmlns="http://www.w3.org/2000/svg" xmlns:xlink="http://www.w3.org/1999/xlink" viewBox="0 0 217.82 488.2">
  <defs>
    <linearGradient id="uuid-018f9e70-0dc8-42fe-9994-1dae14e6a34c" x1="108.91" y1="0" x2="108.91" y2="488.2" gradientUnits="userSpaceOnUse">
      <stop offset="0" stop-color="#00acd8"/>
      <stop offset=".4" stop-color="#36b0a9"/>
      <stop offset=".75" stop-color="#62b47d"/>
      <stop offset="1" stop-color="#d0dc68"/>
    </linearGradient>
  </defs>
  <g id="uuid-e36aa1d8-4491-419c-88be-24eaeb4bbbdd" data-name="Layer_1">
    <path d="M0,0v363.06c11.77,0,23.54-2.24,35.03-6.72l38.84-15.14c22.98-8.96,47.08-8.96,70.06,0l38.85,15.14c11.49,4.48,23.27,6.72,35.04,6.72V0H0ZM182.78,476.64l-38.85-15.14c-22.98-8.96-47.08-8.96-70.06,0l-38.84,15.14c-11.49,4.48-23.26,6.72-35.03,6.72v4.84c11.77,0,23.54-2.24,35.03-6.71l38.84-15.15c22.98-8.96,47.08-8.96,70.06,0l38.85,15.15c11.49,4.48,23.27,6.71,35.04,6.71v-4.84c-11.77,0-23.55-2.24-35.04-6.72ZM182.78,465.09l-38.85-15.14c-22.98-8.96-47.08-8.96-70.06,0l-38.84,15.14c-11.49,4.48-23.26,6.72-35.03,6.72v6.39c11.77,0,23.54-2.24,35.03-6.72l38.84-15.15c22.98-8.95,47.08-8.95,70.06,0l38.85,15.15c11.49,4.48,23.27,6.72,35.04,6.72v-6.39c-11.77,0-23.55-2.24-35.04-6.72ZM182.78,451.78l-38.85-15.14c-22.98-8.96-47.08-8.96-70.06,0l-38.84,15.14c-11.49,4.48-23.26,6.72-35.03,6.72v7.96c11.77,0,23.54-2.24,35.03-6.72l38.84-15.14c22.98-8.96,47.08-8.96,70.06,0l38.85,15.14c11.49,4.48,23.27,6.72,35.04,6.72v-7.96c-11.77,0-23.55-2.24-35.04-6.72ZM182.78,436.91l-38.85-15.15c-22.98-8.95-47.08-8.95-70.06,0l-38.84,15.15c-11.49,4.48-23.26,6.72-35.03,6.72v9.52c11.77,0,23.54-2.24,35.03-6.72l38.84-15.14c22.98-8.96,47.08-8.96,70.06,0l38.85,15.14c11.49,4.48,23.27,6.72,35.04,6.72v-9.52c-11.77,0-23.55-2.24-35.04-6.72ZM182.78,419.94l-38.85-15.14c-22.98-8.96-47.08-8.96-70.06,0l-38.84,15.14c-11.49,4.48-23.26,6.72-35.03,6.72v11.72c11.77,0,23.54-2.24,35.03-6.72l38.84-15.14c22.98-8.96,47.08-8.96,70.06,0l38.85,15.14c11.49,4.48,23.27,6.72,35.04,6.72v-11.72c-11.77,0-23.55-2.24-35.04-6.72ZM182.78,402.18l-38.85-15.14c-22.98-8.96-47.08-8.96-70.06,0l-38.84,15.14c-11.49,4.48-23.26,6.72-35.03,6.72v13.27c11.77,0,23.54-2.24,35.03-6.72l38.84-15.14c22.98-8.96,47.08-8.96,70.06,0l38.85,15.14c11.49,4.48,23.27,6.72,35.04,6.72v-13.27c-11.77,0-23.55-2.24-35.04-6.72ZM182.78,382.31l-38.85-15.14c-22.98-8.96-47.08-8.96-70.06,0l-38.84,15.14c-11.49,4.48-23.26,6.72-35.03,6.72v14.78c11.77,0,23.54-2.24,35.03-6.72l38.84-15.14c22.98-8.96,47.08-8.96,70.06,0l38.85,15.14c11.49,4.48,23.27,6.72,35.04,6.72v-14.78c-11.77,0-23.55-2.24-35.04-6.72ZM182.78,361.06l-38.85-15.14c-22.98-8.96-47.08-8.96-70.06,0l-38.84,15.14c-11.49,4.48-23.26,6.72-35.03,6.72v16.8c11.77,0,23.54-2.24,35.03-6.72l38.84-15.14c22.98-8.96,47.08-8.96,70.06,0l38.85,15.14c11.49,4.48,23.27,6.72,35.04,6.72v-16.8c-11.77,0-23.55-2.24-35.04-6.72Z" style="fill: url(#uuid-018f9e70-0dc8-42fe-9994-1dae14e6a34c); fill-rule: evenodd;"/>
  </g>
</svg>