<?xml version="1.0" encoding="UTF-8"?>
<svg id="uuid-9cc33613-8a37-43ba-8dc9-282ba4a6bf43" data-name="Layer 2" xmlns="http://www.w3.org/2000/svg" xmlns:xlink="http://www.w3.org/1999/xlink" viewBox="0 0 166.67 300.66">
  <defs>
    <linearGradient id="uuid-0ee1edab-aad6-4d44-985b-23a8deffde91" x1="83.34" y1="0" x2="83.34" y2="300.66" gradientUnits="userSpaceOnUse">
      <stop offset="0" stop-color="#04b0df"/>
      <stop offset=".17" stop-color="#00bdcc"/>
      <stop offset=".33" stop-color="#00c7b3"/>
      <stop offset=".5" stop-color="#54ce98"/>
      <stop offset=".67" stop-color="#85d27d"/>
      <stop offset=".83" stop-color="#aed46a"/>
      <stop offset="1" stop-color="#d1d56a"/>
    </linearGradient>
  </defs>
  <g id="uuid-5693b9b5-b606-40ed-a5de-69f4bbde2748" data-name="Layer 1">
    <path d="M0,0v208.69c27.69,0,55.66-22.88,83.34-22.88s55.65,22.88,83.33,22.88V0H0ZM83.34,191.95c-27.68,0-55.65,22.87-83.34,22.87v18.4c27.69,0,55.66-22.88,83.34-22.88s55.65,22.88,83.33,22.88v-18.4c-27.68,0-55.65-22.87-83.33-22.87ZM83.34,216.47c-27.68,0-55.65,22.88-83.34,22.88v15.33c27.69,0,55.66-22.88,83.34-22.88s55.65,22.88,83.33,22.88v-15.33c-27.68,0-55.65-22.88-83.33-22.88ZM83.34,237.93c-27.68,0-55.65,22.88-83.34,22.88v12.26c27.69,0,55.66-22.88,83.34-22.88s55.65,22.88,83.33,22.88v-12.26c-27.68,0-55.65-22.88-83.33-22.88ZM83.34,256.32c-27.68,0-55.65,22.88-83.34,22.88v9.2c27.69,0,55.66-22.88,83.34-22.88s55.65,22.88,83.33,22.88v-9.2c-27.68,0-55.65-22.88-83.33-22.88ZM83.34,271.65c-27.68,0-55.65,22.88-83.34,22.88v6.13c27.69,0,55.66-22.88,83.34-22.88s55.65,22.88,83.33,22.88v-6.13c-27.68,0-55.65-22.88-83.33-22.88Z" style="fill: url(#uuid-0ee1edab-aad6-4d44-985b-23a8deffde91);"/>
  </g>
</svg>