<?xml version="1.0" encoding="UTF-8"?>
<svg id="uuid-847bef67-f460-4a9b-af5f-99643061d311" data-name="Layer 2" xmlns="http://www.w3.org/2000/svg" viewBox="0 0 50 45">
  <g id="uuid-3711a2f2-4d9e-476f-8223-7c69089cbd0e" data-name="Layer 1">
    <path d="M0,0l50,45V0H0ZM43.17,17.15c-.26,1.47-.46,3.25-.59,5.33-2.06-.07-4.08-.1-6.04-.1-.1,0-.31,0-.62.01-.41,0-.76.01-1.03.01l-3.43.06c-.12,0-.25,0-.39.02h-.21c-.62,0-.93-.1-.93-.31,0-.14.13-.31.39-.52,2.1-1.68,3.87-3.33,5.33-4.94,1.45-1.62,2.18-3.65,2.18-6.09,0-1.63-.39-2.87-1.16-3.74-.55-.61-1.29-.91-2.22-.91-.77,0-1.41.22-1.92.66-.51.44-.76.91-.76,1.39,0,.28.12.45.36.52.08.02.33.04.74.08.53.03.95.23,1.28.58.32.36.49.8.49,1.34s-.15.98-.46,1.31c-.31.34-.71.51-1.2.51-.65,0-1.17-.25-1.58-.75-.4-.5-.6-1.17-.6-2,0-1.42.48-2.54,1.43-3.34.95-.81,2.27-1.21,3.93-1.21s3.12.48,4.2,1.44c1.08.96,1.62,2.2,1.62,3.72,0,2.99-2.74,6-8.23,9.03h3.2c1.87-.02,3.09-.06,3.64-.13.74-.07,1.24-.24,1.5-.52.19-.23.35-.7.49-1.42.1-.59.24-.89.41-.89.15,0,.23.12.23.36,0,.14-.02.3-.05.49Z" style="fill: #b2cbc8;"/>
  </g>
</svg>